<?xml version="1.0" encoding="UTF-8"?>
<svg width="752pt" height="752pt" version="1.1" viewBox="0 0 752 752" xmlns="http://www.w3.org/2000/svg">
 <path d="m428.09 469.77c-6.6289 17.996-15.156 35.047-25.102 51.148-9.4727 15.156-20.836 29.363-33.152 42.621-1.4219 1.8945-3.7891 2.3672-5.6836 2.3672s-3.7891-0.94531-5.6836-2.3672c-3.3164-3.3164-3.3164-8.0508-0.47266-11.367 11.84-12.312 22.258-26.047 31.258-40.254 9.4727-14.68 17.523-30.781 23.68-47.832 10.418-27.941 15.629-57.777 15.629-88.086 0-20.836-12.312-39.781-31.73-48.305-4.2617-1.8945-6.1562-6.6289-4.2617-10.418 1.8945-4.2617 6.6289-6.1562 10.418-4.2617 25.102 10.891 41.203 35.52 41.203 62.984 0.47656 32.203-5.207 63.461-16.102 93.77zm-189.43 22.734c-3.7891 2.3672-5.2109 7.1055-3.3164 10.891 1.4219 2.8398 4.2617 4.2617 7.1055 4.2617 1.4219 0 2.8398-0.47266 3.7891-0.94531 12.785-7.1055 24.152-16.102 34.098-26.047 10.418-10.418 18.941-22.258 25.574-35.047 11.367-21.312 17.051-44.988 17.051-69.617 0-19.418 10.891-37.414 28.414-46.41 7.5781-3.7891 15.629-6.1562 24.625-6.1562 4.2617 0 8.0508-3.7891 8.0508-8.0508 0-4.2617-3.7891-8.0508-8.0508-8.0508-11.367 0-22.258 2.8398-32.203 8.0508-22.73 11.84-36.938 35.047-36.938 60.617 0 21.785-5.2109 43.098-15.156 62.039-6.1562 11.367-13.734 22.258-22.73 31.258-9.0039 8.9961-18.949 17.051-30.312 23.207zm84.77-13.734c-3.3164-2.3672-8.5234-1.8945-10.891 1.8945-3.3164 4.2617-8.0508 10.418-11.367 13.734-8.9961 9.9453-19.418 18.941-30.781 26.52-3.7891 2.3672-4.7344 7.5781-2.3672 11.367 1.4219 2.3672 4.2617 3.7891 6.6289 3.7891 1.4219 0 3.3164-0.47266 4.7344-1.4219 12.312-8.5234 23.68-17.996 33.625-28.887 3.3164-3.7891 8.5234-9.9453 12.312-14.68 2.8398-4.2656 1.8945-9.4766-1.8945-12.316zm24.152-102.77c0 17.523-2.3672 34.57-7.5781 51.148-3.3164 9.9453-7.1055 19.418-11.84 28.414-1.8945 3.7891-0.47266 8.9961 3.3164 10.891 1.4219 0.47266 2.3672 0.94531 3.7891 0.94531 2.8398 0 5.6836-1.4219 7.1055-4.2617 5.2109-9.9453 9.4727-20.363 12.785-31.258 5.6836-17.992 8.5234-36.934 8.5234-55.879 0-6.6289 5.2109-12.312 12.312-12.312 6.1562 0 11.367 4.7344 12.312 10.891 0.47266 4.2617 4.2617 7.5781 8.9961 7.1055 4.2617-0.47266 7.5781-4.2617 7.1055-8.9961-1.4219-14.68-13.734-25.574-28.414-25.574-15.625 0.47266-28.414 13.262-28.414 28.887zm-38.359 176.65c1.4219 1.8945 3.7891 2.8398 6.1562 2.8398 1.8945 0 3.7891-0.47266 5.2109-1.8945 12.312-10.418 23.68-21.785 33.625-34.098s18.469-25.102 25.102-39.309c7.1055-14.207 12.785-28.414 16.574-43.098 2.3672-8.0508 4.7344-20.836 6.1562-29.836 0.94531-4.7344-2.3672-8.9961-7.1055-9.4727-4.2617-0.47266-8.0508 2.3672-8.9961 6.6289-1.4219 8.0508-3.3164 20.363-5.6836 27.941-3.7891 13.262-8.9961 26.992-15.629 39.781-6.6289 12.785-14.207 25.102-23.68 36.465-8.9961 11.367-19.418 22.258-31.258 31.73-2.8398 3.793-3.3125 9.0039-0.47266 12.32zm148.23-302.14c-16.574-10.891-35.047-17.996-54.461-21.785-4.2617-0.94531-8.5234 1.8945-9.4727 6.6289-0.94531 4.2617 1.8945 8.5234 6.6289 9.4727 17.051 3.3164 33.625 9.4727 48.305 19.418 38.359 24.625 61.094 66.773 61.094 112.24 0 4.2617 3.7891 8.0508 8.0508 8.0508 4.2617 0 8.0508-3.7891 8.0508-8.0508 0-51.148-25.574-98.508-68.195-125.97zm59.199 151.54c-4.7344-0.47266-8.5234 2.8398-8.9961 7.1055-3.7891 37.887-13.734 74.352-29.836 108.45-1.8945 4.2617 0 8.9961 3.7891 10.891 0.94531 0.47266 2.3672 0.94531 3.3164 0.94531 2.8398 0 6.1562-1.8945 7.1055-4.7344 17.051-35.992 27.469-74.352 31.258-114.13 0.9375-4.2578-1.9023-8.0469-6.6367-8.5234zm-274.2-26.047c0-21.785 5.2109-42.621 15.156-62.039 6.1562-11.367 13.734-22.258 22.73-31.258 8.9961-8.9961 19.418-17.051 30.309-23.207 11.84-6.6289 24.625-11.367 38.359-14.207 8.5234-1.8945 17.523-2.8398 26.52-2.8398 4.2617 0 8.0508-3.7891 8.0508-8.0508 0-4.2617-3.7891-8.0508-8.0508-8.0508-10.418 0-20.363 0.94531-29.836 2.8398-15.156 2.8398-29.363 8.5234-42.621 15.629-12.785 7.1055-24.152 16.102-34.098 26.047-10.418 10.418-18.941 22.258-25.574 35.047-11.367 21.312-17.051 45.465-17.051 69.617 0 19.418-10.891 37.414-27.941 46.41-3.7891 1.8945-5.6836 7.1055-3.3164 10.891 1.4219 2.8398 4.2617 4.2617 7.1055 4.2617 1.4219 0 2.3672-0.47266 3.7891-0.94531 22.262-11.363 36.469-34.57 36.469-60.145zm14.207 71.039c8.0508-9.4727 16.574-28.887 20.836-39.781 1.8945-4.7344-0.94531-9.9453-5.6836-10.891-3.7891-0.94531-7.5781 1.4219-8.9961 4.7344-3.7891 9.4727-10.891 26.992-17.996 35.047-8.0508 9.4727-17.996 17.523-29.836 23.207-3.7891 1.8945-5.6836 6.6289-3.7891 10.891 1.4219 2.8398 4.2617 4.7344 7.1055 4.7344 1.4219 0 2.3672-0.47266 3.7891-0.94531 13.258-6.6328 25.098-15.629 34.57-26.996zm78.141-154.39c3.3164-1.4219 8.5234-3.3164 12.785-4.7344 3.7891-1.4219 6.1562-5.2109 5.2109-9.4727-0.94531-4.7344-5.6836-7.5781-10.418-5.6836-5.2109 1.4219-11.367 3.7891-15.156 5.6836-13.262 6.6289-25.102 15.629-35.047 26.992-15.625 18.945-25.098 43.57-25.098 69.145 0 4.2617 3.3164 8.0508 8.0508 8.0508 4.2617 0 8.0508-3.7891 8.0508-8.0508 0-21.785 8.0508-42.621 22.258-59.199 8.0508-9.4727 17.996-17.047 29.363-22.73zm89.508-14.684c-14.68-7.1055-31.258-11.367-48.305-11.367-4.2617 0-8.0508 3.7891-8.0508 8.0508 0 4.2617 3.7891 8.0508 8.0508 8.0508 14.207 0 28.414 3.3164 41.203 9.4727 32.203 16.102 52.094 47.832 52.094 83.352 0 40.254-8.0508 79.09-23.68 115.55-8.5234 19.891-18.941 38.832-31.73 56.355-2.8398 3.7891-1.8945 8.5234 1.8945 11.367 1.4219 0.94531 3.3164 1.4219 4.7344 1.4219 2.3672 0 5.2109-0.94531 6.6289-3.3164 13.262-18.469 24.625-38.359 33.625-59.199 16.574-38.832 25.102-79.562 25.102-122.18-0.47656-41.199-24.156-79.086-61.566-97.559zm108.45-8.5234c-8.5234-12.312-18.469-24.152-29.836-34.098-11.367-10.418-23.68-18.941-36.938-26.047-13.734-7.5781-27.941-12.785-43.098-17.051-15.156-3.7891-31.258-6.1562-47.359-6.1562-23.68 0-46.883 4.2617-68.668 12.785-4.2617 1.4219-6.1562 6.1562-4.7344 10.418 1.4219 3.3164 4.2617 5.2109 7.5781 5.2109 0.94531 0 1.8945 0 2.8398-0.47266 19.891-7.5781 41.203-11.84 62.984-11.84 57.305 0 111.29 28.414 143.5 76.246 1.4219 2.3672 4.2617 3.7891 6.6289 3.7891 1.4219 0 3.3164-0.47266 4.7344-1.4219 4.2656-2.3633 5.2109-7.5742 2.3711-11.363zm15.152 26.52c-1.8945-4.2617-6.6289-5.6836-10.891-3.7891s-5.6836 6.6289-3.7891 10.891c10.891 22.73 16.102 47.359 16.102 72.93 0 4.2617 3.7891 8.0508 8.0508 8.0508 4.2617 0 8.0508-3.7891 8.0508-8.0508 0-14.207-1.4219-27.941-4.7344-41.676-2.8438-13.254-7.1055-26.039-12.789-38.355zm-345.24 79.562c0-57.777 28.887-111.77 77.195-143.97 3.7891-2.3672 4.7344-7.5781 2.3672-11.367-2.3672-3.7891-7.5781-4.7344-11.367-2.3672-12.785 8.5234-24.152 18.469-34.57 29.836-10.418 11.367-19.418 23.68-26.52 36.938-7.5781 13.734-13.262 27.941-17.051 43.098-3.7891 15.629-6.1562 31.258-6.1562 47.359 0 4.2617 3.7891 8.0508 8.0508 8.0508 4.2617 0 8.0508-2.8438 8.0508-7.5781z" fill="#454545"/>
</svg>
