<?xml version="1.0" encoding="UTF-8"?>
<svg width="752pt" height="752pt" version="1.1" viewBox="0 0 752 752" xmlns="http://www.w3.org/2000/svg">
 <g fill="#84fbc1">
  <path d="m312.46 272.99c8.707 0 15.785 7.0781 15.785 15.785 0 4.3594 3.5352 7.8945 7.8945 7.8945s7.8945-3.5352 7.8945-7.8945c0-14.668-10.102-26.922-23.68-30.449v-9.0156c0-4.3594-3.5352-7.8945-7.8945-7.8945-4.3594 0-7.8945 3.5352-7.8945 7.8945v9.0156c-13.578 3.5312-23.68 15.785-23.68 30.449 0 17.41 14.164 31.57 31.57 31.57 8.707 0 15.785 7.0781 15.785 15.785 0 8.707-7.0781 15.785-15.785 15.785s-15.785-7.0781-15.785-15.785c0-4.3594-3.5352-7.8945-7.8945-7.8945s-7.8945 3.5352-7.8945 7.8945c0 14.668 10.102 26.922 23.68 30.449v9.0156c0 4.3594 3.5352 7.8945 7.8945 7.8945s7.8945-3.5352 7.8945-7.8945v-9.0156c13.578-3.5312 23.68-15.785 23.68-30.449 0-17.41-14.164-31.57-31.57-31.57-8.707 0-15.785-7.0781-15.785-15.785 0-8.707 7.0781-15.785 15.785-15.785z"/>
  <path d="m554.45 501.56-104.27-104.27c-3.0781-3.0781-8.1289-3.0781-11.207 0l-15.234 15.234-16.969-16.891c20.363-23.047 31.57-52.172 31.57-83.191 0-33.625-13.102-65.277-36.859-89.035-49.094-49.094-128.97-49.094-178.07 0s-49.094 128.97 0 178.07c23.758 23.758 55.41 36.859 89.035 36.859 31.02 0 60.145-11.207 83.191-31.57l16.891 16.969-15.234 15.234c-3.0781 3.0781-3.0781 8.1289 0 11.207l104.27 104.27c7.3398 7.3398 16.891 10.973 26.441 10.973 9.6289 0 19.18-3.6328 26.441-10.973 14.602-14.523 14.602-38.281 0-52.883zm-164.1-111.21c-20.836 20.758-48.465 32.203-77.902 32.203-29.441 0-57.066-11.445-77.824-32.203-42.938-42.938-42.938-112.79 0-155.73 21.469-21.469 49.648-32.203 77.824-32.203 28.18 0 56.434 10.734 77.902 32.203 20.758 20.758 32.203 48.383 32.203 77.824s-11.441 57.066-32.203 77.906z"/>
 </g>
</svg>
