<?xml version="1.0" encoding="UTF-8"?>
<svg width="752pt" height="752pt" version="1.1" viewBox="0 0 752 752" xmlns="http://www.w3.org/2000/svg">
 <g fill="#454545">
  <path d="m386.27 580.68c5.2266 0 9.4727-4.2422 9.4727-9.4727 0-5.2266-4.2422-9.4727-9.4727-9.4727h-23.68c-5.2266 0-9.4727 4.2422-9.4727 9.4727 0 5.2266 4.2422 9.4727 9.4727 9.4727z"/>
  <path d="m203.38 321.93c1.9805 21.25 11.199 41.078 26.195 56.227 0.10938 0.11719 0.19531 0.25391 0.30859 0.37109l46.992 46.957v22.277c0 24.082 7.5234 46.523 21.254 63.637v45.609c0 13.051 10.617 23.668 23.668 23.668h13.148c5.2266 0 9.4727-4.2422 9.4727-9.4727 0-5.2266-4.2422-9.4727-9.4727-9.4727h-13.148c-2.6094 0-4.7266-2.1211-4.7266-4.7266v-39.578h117.84v39.578c0 2.6055-2.1172 4.7266-4.7266 4.7266h-16.895c-5.2266 0-9.4727 4.2422-9.4727 9.4727 0 5.2266 4.2422 9.4727 9.4727 9.4727h16.895c13.051 0 23.668-10.617 23.668-23.668l0.003906-47.461c13.734-16.551 21.254-37.25 21.254-58.695v-21.789l2.5273-2.5273c0.0625-0.0625 0.10547-0.13672 0.16406-0.20312l42.152-42.152c17.031-17.023 27.578-38.215 29.965-60.027l32.254-32.254c4.4727-4.4766 6.9375-10.418 6.9375-16.734 0-6.3242-2.4609-12.266-6.9375-16.742l-3.1445-3.1445c-2.2695-2.2695-5.4023-3.1367-8.3438-2.625 0.51562-2.9375-0.35156-6.0664-2.6172-8.3359l-24.668-24.668c-3.6992-3.6953-9.6953-3.6992-13.395 0-3.6992 3.6992-3.6992 9.6953 0 13.398l24.668 24.664c1.8516 1.8516 4.2734 2.7734 6.6953 2.7734 0.55078 0 1.0977-0.0625 1.6445-0.15625-0.51562 2.9375 0.34766 6.0664 2.6133 8.3359l3.1602 3.1602c1.1992 1.1992 1.3789 2.6055 1.3789 3.3398s-0.17969 2.1367-1.3828 3.3438l-27.988 27.988-83.324-83.332 27.984-27.984c1.8438-1.8477 4.8438-1.8438 6.6875 0l16.949 16.953c3.6992 3.6953 9.6953 3.6992 13.395 0s3.6992-9.6953 0-13.398l-16.949-16.949c-9.2305-9.2266-24.242-9.2305-33.473 0l-33.559 33.559c-21.301 1.9844-41.145 11.223-56.277 26.238-0.10938 0.097656-0.23047 0.17578-0.33594 0.28125l-4.1406 4.1367-5.5508-5.5312c-17.051-17.051-38.23-27.602-60.016-29.965l-32.25-32.25c-9.2305-9.2305-24.242-9.2305-33.473 0l-40.812 40.812c-3.6992 3.6992-3.6992 9.6953 0 13.395 3.6992 3.6992 9.6953 3.6992 13.395 0l40.812-40.812c1.8438-1.8438 4.8438-1.8438 6.6875 0l27.969 27.973-83.324 83.332-27.973-27.973c-1.8438-1.8438-1.8438-4.8398 0-6.6875l15.305-15.305c3.6992-3.6992 3.6992-9.6953 0-13.398-3.6992-3.7031-9.6953-3.6992-13.395 0l-15.305 15.312c-9.2305 9.2305-9.2305 24.242 0 33.473zm234.96 176.55h-126.16c-10.539-13.625-16.363-31.43-16.363-50.719v-68.691h9.2109c1.8047 0 3.4922 0.54297 4.9531 1.4805v47.191c0 5.2266 4.2422 9.4727 9.4727 9.4727 5.2266 0 9.4727-4.2422 9.4727-9.4727l-0.003907-115.56c0-4.8594 3.9531-8.8125 8.8086-8.8125 0.75781 0 1.5312 0.10938 2.3711 0.35156 1.4805 0.40234 2.8242 1.1758 3.8359 2.1836 1.6797 1.6992 2.6094 3.9297 2.6094 6.2812v75.867c0 5.2266 4.2422 9.4727 9.4727 9.4727 5.2266 0 9.4727-4.2422 9.4727-9.4727v-93.59c0-1.3438 0.29688-2.625 0.93359-3.8945 1.4414-2.9648 4.5195-4.8789 7.832-4.8789 2.3672 0 4.5859 0.91406 6.2461 2.5781 1.6562 1.6523 2.5664 3.8555 2.5664 6.1992v9.5234c0 0.53516 0.070312 1.0508 0.15625 1.5586v82.504c0 5.2266 4.2422 9.4727 9.4727 9.4727 5.2266 0 9.4727-4.2422 9.4727-9.4727v-85.523c0.53125-3.1875 2.7617-5.8672 6.0391-6.9375 2.7148-0.96094 6.5078-0.16406 8.8555 2.1562 1.6562 1.6562 2.5664 3.875 2.5664 6.2422v89.891c0 5.2266 4.2422 9.4727 9.4727 9.4727 5.2266 0 9.4727-4.2422 9.4727-9.4727v-58.594c0-4.8594 3.9531-8.8125 8.8125-8.8125 2.3359 0 4.5234 0.91406 6.1992 2.6094 1.6641 1.6562 2.5703 3.8594 2.5703 6.2031v115.57c0.011719 17.465-6.3438 34.297-17.824 47.625zm68.227-127.7-31.457 31.457v-20.074l7.2695-7.2695c3.6992-3.6992 3.6992-9.6953 0-13.395-2-2-4.6602-2.8789-7.2695-2.7188v-23.496c0-7.4023-2.8789-14.359-8.0742-19.555-5.2266-5.2891-12.199-8.1992-19.633-8.1992-3.082 0-6.043 0.52734-8.8125 1.457v-5.0039c0-7.4258-2.8789-14.402-8.1562-19.672-5.2773-5.2148-12.238-8.0859-19.602-8.0859-3.1211 0-6.1367 0.50781-8.7148 1.4297-1.5547 0.50781-3.0156 1.1875-4.4336 1.9453-1.0781-1.6914-2.3281-3.2852-3.7852-4.7344-3.2266-3.2305-7.1172-5.5547-11.367-6.8711l1.8984-1.9023 0.019531-0.019531c0.003906-0.003907 0.007812-0.003907 0.015625-0.007813 0.003906-0.003906 0.003906-0.007812 0.007812-0.015625l8.5234-8.5195c0.050781-0.050781 0.11719-0.085938 0.17188-0.13672l2.1875-2.1875c12.352-12.352 28.746-19.762 46.293-21.066l89.215 89.203c-2.1836 17.09-10.652 33.805-24.297 47.438zm-142.2-111.38-25.109 25.133c-0.50781-0.027344-1.0078-0.10547-1.5156-0.10547-15.301 0-27.75 12.449-27.75 27.758v1.625l-9.7266 9.7227c-5.2891 5.293-8.1797 12.293-8.1172 19.559-0.050782 6.2266 2.0117 12.156 5.8281 17.043h-2.707c-10.141 0-18.391 8.2695-18.391 18.434v20.133l-31.508-31.508-0.42578-0.42187c-0.42969-0.42578-1.0703-1.0547-1.3984-1.3867-0.097656-0.11328-0.20703-0.22656-0.31641-0.33594-12.352-12.383-19.758-28.781-21.051-46.293l89.184-89.188c17.074 2.1602 33.785 10.633 47.457 24.309z"/>
 </g>
</svg>
