<?xml version="1.0" encoding="UTF-8"?>
<svg width="752pt" height="752pt" version="1.1" viewBox="0 0 752 752" xmlns="http://www.w3.org/2000/svg">
 <path d="m376 306.45c3.9258 0 7.6914 1.5586 10.465 4.332 2.7773 2.7773 4.3359 6.543 4.3359 10.465v75.035c0 5.2852-2.8203 10.172-7.3984 12.816-4.582 2.6445-10.223 2.6445-14.801 0-4.5781-2.6445-7.3984-7.5312-7.3984-12.816v-75.035c0-3.9219 1.5586-7.6875 4.332-10.465 2.7773-2.7734 6.543-4.332 10.465-4.332zm0 143.55c-5.2188 0-10.227 2.0703-13.918 5.7617-3.6914 3.6914-5.7656 8.6992-5.7656 13.922 0 5.2188 2.0742 10.227 5.7656 13.918 3.6914 3.6914 8.6992 5.7617 13.918 5.7617 5.2227 0 10.227-2.0703 13.918-5.7617 3.6914-3.6914 5.7656-8.6992 5.7656-13.918 0.039062-5.2344-2.0195-10.266-5.7188-13.965-3.7031-3.6992-8.7305-5.7617-13.965-5.7188zm220.21 88.793c-1.2773 2.3359-3.1602 4.2852-5.4531 5.6406-2.293 1.3516-4.9062 2.0625-7.5703 2.0586h-414.38c-3.4922-0.050782-6.8594-1.3359-9.4961-3.6289-2.6406-2.293-4.3789-5.4414-4.918-8.8984-0.53516-3.4531 0.16406-6.9844 1.9844-9.9688l207.19-325.59c2.7266-4.2227 7.4062-6.7695 12.43-6.7695 5.0273 0 9.707 2.5469 12.434 6.7695l207.19 325.59c1.3906 2.1953 2.1758 4.7227 2.2812 7.3203 0.10156 2.5977-0.48047 5.1758-1.6914 7.4766zm-39.957-21.902-180.26-283.55-180.25 283.26z" fill="#84fbc1"/>
</svg>
