<?xml version="1.0" encoding="UTF-8"?>
<svg width="752pt" height="752pt" version="1.1" viewBox="0 0 752 752" xmlns="http://www.w3.org/2000/svg">
 <defs>
  <clipPath id="c">
   <path d="m158 139.21h376v266.79h-376z"/>
  </clipPath>
  <clipPath id="b">
   <path d="m158 504h71v108.79h-71z"/>
  </clipPath>
  <clipPath id="a">
   <path d="m257 395h337v217.79h-337z"/>
  </clipPath>
 </defs>
 <path d="m218.14 198.41h98.664v19.734h-98.664z" fill="#84fbc1"/>
 <path d="m218.14 237.88h19.734v19.734h-19.734z" fill="#84fbc1"/>
 <path d="m257.61 237.88h19.734v19.734h-19.734z" fill="#84fbc1"/>
 <g clip-path="url(#c)">
  <path d="m178.68 168.81c0-5.4492 4.418-9.8633 9.8672-9.8633h246.66v49.328c0 7.8516 3.1172 15.379 8.668 20.93 5.5508 5.5508 13.082 8.6719 20.93 8.6719h19.734v-19.734h-19.734c-5.4492 0-9.8672-4.418-9.8672-9.8672v-35.379l59.199 59.199v94.578h19.734v-98.664c-0.003906-2.6172-1.043-5.125-2.8906-6.9766l-78.93-78.93h-0.003907c-1.8477-1.8516-4.3555-2.8906-6.9727-2.8906h-256.52c-7.8516 0-15.379 3.1172-20.93 8.668-5.5508 5.5508-8.668 13.082-8.668 20.93v236.79h19.73z" fill="#84fbc1"/>
 </g>
 <g clip-path="url(#b)">
  <path d="m178.68 583.19v-78.93h-19.73v78.93c0 7.8516 3.1172 15.379 8.668 20.93 5.5508 5.5508 13.078 8.6719 20.93 8.6719h39.465v-19.734h-39.465c-5.4492 0-9.8672-4.418-9.8672-9.8672z" fill="#84fbc1"/>
 </g>
 <g clip-path="url(#a)">
  <path d="m573.33 395.73h-138.13c-5.2344 0-10.254 2.0781-13.953 5.7773-3.6992 3.7031-5.7812 8.7227-5.7812 13.953v59.199h-147.99c-5.4492 0-9.8672 4.418-9.8672 9.8672v29.598c0.019531 3.4727 0.96875 6.8789 2.7422 9.8672-1.7734 2.9844-2.7227 6.3906-2.7422 9.8672v59.199-0.003906c0 5.2344 2.0781 10.254 5.7812 13.953 3.6992 3.7031 8.7188 5.7812 13.953 5.7812h138.12c3.4766-0.019531 6.8828-0.96875 9.8672-2.7422 2.9883 1.7734 6.3945 2.7227 9.8672 2.7422h138.13c5.2305 0 10.25-2.0781 13.953-5.7812 3.6992-3.6992 5.7773-8.7188 5.7773-13.953v-59.195c-0.019532-3.4766-0.96484-6.8828-2.7422-9.8672 1.7773-2.9883 2.7227-6.3945 2.7422-9.8672v-29.598c-0.023438-1.4297-0.35938-2.832-0.98438-4.1133 0.61328-1.8594 0.94531-3.7969 0.98438-5.7539v-59.199c0-5.2305-2.0781-10.25-5.7773-13.953-3.7031-3.6992-8.7227-5.7773-13.953-5.7773zm0 118.39h-138.13v-19.73h138.13zm0 39.465h-138.13v-19.73h138.13zm-295.99-19.73h138.12v19.734l-138.12-0.003906zm157.86-78.93 138.13-0.003906v19.734h-138.13zm0-39.465 138.13-0.003906v19.734h-138.13zm-157.86 78.93h138.12v19.734l-138.12-0.003906zm0 98.664v-19.734h138.12v19.734zm295.99 0-138.13-0.003906v-19.73h138.13z" fill="#84fbc1"/>
 </g>
 <path d="m454.93 346.4v-69.062c0-2.6172-1.0391-5.1289-2.8867-6.9766-1.8516-1.8516-4.3594-2.8906-6.9766-2.8906h-78.93v19.734h55.113l-59.199 59.199-84.711-0.003906c-2.6172 0-5.125 1.0391-6.9766 2.8906l-108.53 108.53 13.949 13.949 105.64-105.63h84.715c2.6133-0.003907 5.125-1.043 6.9727-2.8906l62.09-62.09v45.246z" fill="#84fbc1"/>
</svg>
