<?xml version="1.0" encoding="UTF-8"?>
<svg width="752pt" height="752pt" version="1.1" viewBox="0 0 752 752" xmlns="http://www.w3.org/2000/svg">
 <g fill="#84fbc1">
  <path d="m287.2 450.94h14.801v14.801h-14.801z"/>
  <path d="m420.4 450.94h14.801v14.801h-14.801z"/>
  <path d="m353.8 399.14v13.121c-6.0234 0.45312-11.652 3.1602-15.77 7.5859-4.1133 4.4219-6.4102 10.234-6.4297 16.277v5.5508-0.003906c0.007813 6.3789 2.5469 12.488 7.0547 17 4.5078 4.5078 10.621 7.043 16.996 7.0508h11.098c5.1133 0.007813 9.25 4.1523 9.25 9.2656v5.5508-0.003906c-0.007812 5.1055-4.1445 9.2422-9.25 9.25h-11.098c-5.1055-0.007812-9.2422-4.1445-9.25-9.25h-14.801c0.023438 6.043 2.3164 11.855 6.4336 16.277 4.1133 4.4219 9.7422 7.1328 15.766 7.5898v13.133h14.801v-13.133c6.0234-0.45703 11.652-3.168 15.77-7.5898 4.1133-4.4219 6.4102-10.234 6.4297-16.277v-5.5508 0.003906c-0.007812-6.375-2.543-12.488-7.0508-16.996-4.5117-4.5117-10.621-7.0469-17-7.0547h-11.098c-5.1055-0.007812-9.2422-4.1445-9.25-9.25v-5.5508 0.003906c0.007812-5.1055 4.1445-9.2422 9.25-9.25h11.098c5.1055 0.007813 9.2422 4.1445 9.25 9.25h14.801c-0.015625-6.0469-2.3086-11.863-6.4219-16.289-4.1172-4.4258-9.75-7.1367-15.777-7.5898v-13.121z"/>
  <path d="m162.26 483.98c1.2773 2.4336 3.8008 3.9609 6.5469 3.9609h0.125l19.195-0.32422c5.7578 21.004 30.098 88.18 105.94 88.18 3.1914 0 6.4805-0.125 9.8633-0.37109 3.7617-0.28906 6.7031-3.3633 6.8281-7.1328 0.125-3.7734-2.6133-7.0352-6.3477-7.5703-22.77-4.457-43.074-17.207-56.98-35.785h34.516c13.082 15.676 30.531 27.109 50.125 32.848 19.598 5.7383 40.457 5.5273 59.93-0.61328 3.8711 3.0703 8.6602 4.75 13.602 4.7656h125.79c5.8867 0 11.535-2.3398 15.699-6.5 4.1602-4.1641 6.5-9.8125 6.5-15.699v-7.3984c0-5.8867-2.3398-11.535-6.5-15.699-4.1641-4.1602-9.8125-6.5-15.699-6.5h-8.7617c0.87891-2.3711 1.3398-4.875 1.3633-7.4023v-7.3984c-0.019532-5.4766-2.0781-10.754-5.7734-14.801 3.6953-4.043 5.7539-9.3203 5.7734-14.797v-7.3984c-0.019532-5.4805-2.0781-10.758-5.7734-14.801 3.6953-4.0469 5.7539-9.3203 5.7734-14.801v-7.3984c0-5.8867-2.3398-11.535-6.5039-15.699-4.1602-4.1602-9.8086-6.5-15.695-6.5h-55.699c-17.879-25.629-46.379-41.812-77.547-44.027 0-0.125 0.050781-0.24609 0.050781-0.37109v-7.3984c-0.019531-5.1289-1.832-10.086-5.1211-14.016l49.859-49.824 54.02 47.246v0.003906c3.0273 2.668 7.6406 2.4141 10.359-0.57031l68.477-74.797v17.02h14.801l-0.003906-37c0-1.9609-0.77734-3.8438-2.1641-5.2305-1.3906-1.3906-3.2695-2.168-5.2344-2.168h-36.996v14.801h21.039l-66.004 72-53.758-47.031-0.007812-0.003906c-2.9297-2.5625-7.3477-2.4141-10.098 0.33984l-39.449 39.449c-0.55859-4.4727-2.4727-8.668-5.4922-12.02 3.6953-4.043 5.7539-9.3203 5.7734-14.797v-7.4023c0-5.8867-2.3398-11.531-6.5-15.695-4.1641-4.1641-9.8125-6.5039-15.699-6.5039h-125.79c-5.8906 0-11.535 2.3398-15.699 6.5039-4.1641 4.1641-6.5 9.8086-6.5 15.695v7.4023c0.019532 5.4766 2.0742 10.754 5.7695 14.797-3.6953 4.0469-5.75 9.3203-5.7695 14.801v7.3984c0.019532 5.4805 2.0742 10.754 5.7695 14.801-3.6953 4.0469-5.75 9.3203-5.7695 14.801v7.3984c0.019532 5.4805 2.0742 10.754 5.7695 14.801-3.6953 4.043-5.75 9.3203-5.7695 14.797v7.4023c0.019532 5.4766 2.0742 10.754 5.7695 14.797-3.6953 4.0469-5.75 9.3203-5.7695 14.801v5.0312l-35.617 49.867c-1.625 2.2734-1.8281 5.2656-0.53125 7.7383zm76.008 26.156v0.003907c-3.5586-7.0898-6.3672-14.527-8.3828-22.199h32.086c2.3203 7.7539 5.5469 15.203 9.6172 22.199zm-25.062-88.793c0-4.0859 3.3125-7.3984 7.4023-7.3984h47.137-0.003906c-3.4023 7.0781-5.9766 14.527-7.6797 22.199h-38.176l-8.6797-10.133zm0-29.598v-7.4023c0-4.0859 3.3125-7.3984 7.4023-7.3984h76.719c-8.0586 6.3281-15.145 13.805-21.023 22.199h-55.695c-4.0898 0-7.4023-3.3125-7.4023-7.3984zm0-37v-7.3984c0-4.0898 3.3125-7.4023 7.4023-7.4023h125.79c1.9609 0 3.8438 0.78125 5.2344 2.168 1.3867 1.3867 2.1641 3.2695 2.1641 5.2344v7.3984c0 0.125-0.042969 0.25-0.050781 0.37891-10.559 0.73828-20.941 3.1094-30.773 7.0195h-102.37c-1.9648 0-3.8477-0.77734-5.2344-2.168-1.3867-1.3867-2.168-3.2695-2.168-5.2305zm0-37v-7.3984c0-4.0859 3.3125-7.3984 7.4023-7.3984h125.79c1.9609 0 3.8438 0.77734 5.2344 2.168 1.3867 1.3867 2.1641 3.2695 2.1641 5.2305v7.3984c0 1.9648-0.77734 3.8477-2.1641 5.2344-1.3906 1.3867-3.2734 2.168-5.2344 2.168h-125.79c-1.9648 0-3.8477-0.78125-5.2344-2.168-1.3867-1.3867-2.168-3.2695-2.168-5.2344zm44.777 133.2c-0.17578 2.457-0.37891 4.8984-0.37891 7.3984v0.003906c0.039062 4.9531 0.43359 9.8984 1.1836 14.797h-5.1797l-19.023-22.199zm280.81 81.398v7.3984c0 1.9609-0.77734 3.8438-2.1641 5.2344-1.3906 1.3867-3.2695 2.1641-5.2344 2.1641h-125.79c-4.0898 0-7.4023-3.3125-7.4023-7.3984v-7.3984c0-4.0859 3.3125-7.4023 7.4023-7.4023h125.79c1.9648 0 3.8438 0.78125 5.2344 2.168 1.3867 1.3906 2.1641 3.2695 2.1641 5.2344zm-87.93-22.199c4.082-6.9922 7.3086-14.441 9.6211-22.199h41.312c1.9609 0 3.8438 0.77734 5.2305 2.168 1.3906 1.3867 2.168 3.2695 2.168 5.2305v7.3984c0 1.9648-0.77734 3.8477-2.168 5.2344-1.3867 1.3867-3.2695 2.168-5.2305 2.168zm13.555-59.199h37.379c1.9609 0 3.8438 0.78125 5.2305 2.168 1.3906 1.3867 2.168 3.2695 2.168 5.2344v7.3984c0 1.9609-0.77734 3.8438-2.168 5.2305-1.3867 1.3906-3.2695 2.168-5.2305 2.168h-38.109c0.71875-4.8984 1.0898-9.8477 1.1094-14.797 0-2.5039-0.19922-4.9453-0.375-7.4023zm37.375-37 0.003906 0.003906c1.9609 0 3.8438 0.77734 5.2305 2.1641 1.3906 1.3906 2.168 3.2695 2.168 5.2344v7.3984c0 1.9648-0.77734 3.8438-2.168 5.2344-1.3867 1.3867-3.2695 2.168-5.2305 2.168h-39.457c-1.6992-7.6719-4.2773-15.121-7.6797-22.199zm-51.797 44.398 0.003906 0.003906c0.039062 18.605-5.8281 36.742-16.762 51.797h-27.637c-5.8906 0-11.535 2.3398-15.699 6.5-4.1641 4.1641-6.5 9.8125-6.5 15.699v7.3984c0 1.4922 0.15234 2.9805 0.44922 4.4414-24.055 6.3438-49.668 2.3086-70.605-11.125-20.938-13.438-35.277-35.039-39.531-59.547-4.2539-24.512 1.9648-49.684 17.152-69.391 15.184-19.703 37.938-32.137 62.723-34.266 24.789-2.1328 49.332 6.2305 67.656 23.051 18.328 16.824 28.758 40.562 28.754 65.441zm-236.79-184.99c0-4.0859 3.3125-7.3984 7.4023-7.3984h125.79c1.9609 0 3.8438 0.78125 5.2344 2.168 1.3867 1.3867 2.1641 3.2695 2.1641 5.2305v7.4023c0 1.9609-0.77734 3.8438-2.1641 5.2305-1.3906 1.3867-3.2734 2.168-5.2344 2.168h-125.79c-4.0898 0-7.4023-3.3125-7.4023-7.3984zm-6.875 167.38 27.785 32.41h-13.508c-2.2109 0.003906-4.3008 0.98828-5.707 2.6953-1.4023 1.7031-1.9727 3.9414-1.5547 6.1094 4.4961 27.293 18.586 52.086 39.73 69.922-41.77-20.836-51.367-70.297-51.863-73.066-0.63672-3.5234-3.7031-6.0898-7.2812-6.0898h-0.12891l-10.441 0.18359z"/>
 </g>
</svg>
