<?xml version="1.0" encoding="UTF-8"?>
<svg width="752pt" height="752pt" version="1.1" viewBox="0 0 752 752" xmlns="http://www.w3.org/2000/svg">
 <g fill="#454545">
  <path d="m365.04 445.05h27.469v54.773h-27.469z"/>
  <path d="m410.71 381.61h27.469v118.22h-27.469z"/>
  <path d="m456.38 413.32h27.469v86.504h-27.469z"/>
  <path d="m502.05 349.89h27.469v149.93h-27.469z"/>
  <path d="m561.91 247.25-68.078-68.078h-219.07v38.348h-38.359v96.105c-18.793 10.316-33.246 27.047-40.723 47.137-7.4766 20.09-7.4766 42.199 0 62.289 7.4766 20.094 21.93 36.824 40.723 47.137v102.65h287.11v-38.344h38.344zm-309.54-13.777h22.391v69.289c-7.6016 0.36719-15.129 1.7109-22.391 3.9961zm-46.32 158.44c0-19.477 7.7344-38.152 21.508-51.926 13.77-13.77 32.449-21.508 51.926-21.508 19.477 0 38.152 7.7383 51.926 21.508 13.77 13.773 21.508 32.449 21.508 51.926 0 19.477-7.7383 38.156-21.508 51.926-13.773 13.773-32.449 21.508-51.926 21.508-19.473-0.019531-38.137-7.7617-51.906-21.527-13.766-13.77-21.508-32.438-21.527-51.906zm301.57 164.98h-255.25v-79.828c7.2617 2.2852 14.789 3.6289 22.391 3.9961v53.426h232.86zm-216.9-38.359v-38.02c29.035-3.6445 54.441-21.285 68.004-47.211 13.562-25.93 13.562-56.859 0-82.785-13.562-25.93-38.969-43.566-68.004-47.211v-108.2h191.85l0.25 63.43h63.148v260z"/>
  <path d="m312.34 221.87h52.699v15.953h-52.699z"/>
  <path d="m341.93 289.94h106.6v15.953h-106.6z"/>
  <path d="m312.34 255.9h136.2v15.953h-136.2z"/>
  <path d="m287.46 453.34v-9.1016c9.6641-2.5977 17.457-9.7461 20.875-19.156 3.418-9.4062 2.0312-19.891-3.7148-28.086-5.7461-8.1953-15.129-13.07-25.137-13.066-3.9258 0-7.6914-1.5586-10.465-4.3359-2.7773-2.7734-4.3359-6.5391-4.3359-10.465 0-3.9219 1.5586-7.6875 4.3359-10.465 2.7734-2.7734 6.5391-4.332 10.465-4.332s7.6875 1.5586 10.465 4.332c2.7734 2.7773 4.332 6.543 4.332 10.465h15.957c-0.011719-6.75-2.25-13.305-6.3633-18.656-4.1172-5.3516-9.8789-9.1953-16.398-10.941v-9.1016h-15.984v9.1016c-9.6992 2.5664-17.527 9.7188-20.965 19.145-3.4336 9.4258-2.043 19.938 3.7305 28.141 5.7734 8.207 15.191 13.07 25.227 13.023 3.9258 0 7.6875 1.5586 10.465 4.3359 2.7734 2.7734 4.332 6.5391 4.332 10.465 0 3.9219-1.5586 7.6875-4.332 10.461-2.7773 2.7773-6.5391 4.3359-10.465 4.3359s-7.6914-1.5586-10.465-4.3359c-2.7773-2.7734-4.3359-6.5391-4.3359-10.461h-15.953c0.015626 6.75 2.2539 13.309 6.3711 18.656 4.1172 5.3516 9.8828 9.1953 16.406 10.941v9.1016z"/>
 </g>
</svg>
