<?xml version="1.0" encoding="UTF-8"?>
<svg width="752pt" height="752pt" version="1.1" viewBox="0 0 752 752" xmlns="http://www.w3.org/2000/svg">
 <g fill="#454545">
  <path d="m487 346.4c16.324 0 29.598 13.273 29.598 29.598 0 4.0859 3.3164 7.3984 7.3984 7.3984 4.0859 0 7.3984-3.3164 7.3984-7.3984 0-16.324 13.273-29.598 29.598-29.598s29.598 13.273 29.598 29.598c0 4.0859 3.3164 7.3984 7.3984 7.3984 4.0859 0 7.3984-3.3164 7.3984-7.3984 0.007813-126.48-102.9-229.39-229.38-229.39-126.48 0-229.39 102.91-229.39 229.39 0 4.0859 3.3164 7.3984 7.3984 7.3984 4.0859 0 7.3984-3.3164 7.3984-7.3984 0-16.324 13.273-29.598 29.598-29.598 16.324 0 29.598 13.273 29.598 29.598 0 4.0859 3.3164 7.3984 7.3984 7.3984 4.0859 0 7.3984-3.3164 7.3984-7.3984 0-16.324 13.273-29.598 29.598-29.598 16.324 0 29.598 13.273 29.598 29.598 0 4.0859 3.3164 7.3984 7.3984 7.3984 4.0859 0 7.3984-3.3164 7.3984-7.3984 0-16.324 13.273-29.598 29.598-29.598s29.598 13.273 29.598 29.598v14.801h-7.3984c-4.0859 0-7.3984 3.3164-7.3984 7.3984v14.801c-24.484 0-44.398 19.914-44.398 44.398v29.598c0 24.484 19.914 44.398 44.398 44.398h14.801v29.598h-7.3984c-4.0781 0-7.3984-3.3242-7.3984-7.3984 0-4.0859-3.3164-7.3984-7.3984-7.3984h-29.598c-4.0859 0-7.3984 3.3164-7.3984 7.3984v7.3984c0 24.484 19.914 44.398 44.398 44.398h44.398c24.484 0 44.398-19.914 44.398-44.398v-29.598c0-24.484-19.914-44.398-44.398-44.398h-14.801v-29.598h7.3984c4.0781 0 7.3984 3.3242 7.3984 7.3984 0 4.0859 3.3164 7.3984 7.3984 7.3984h29.598c4.0859 0 7.3984-3.3164 7.3984-7.3984v-7.3984c0-24.484-19.914-44.398-44.398-44.398v-14.801c0-4.0859-3.3164-7.3984-7.3984-7.3984h-7.3984v-14.801c0-16.324 13.273-29.598 29.598-29.598s29.598 13.273 29.598 29.598c0 4.0859 3.3164 7.3984 7.3984 7.3984 4.0859 0 7.3984-3.3164 7.3984-7.3984 0.015626-16.324 13.289-29.598 29.613-29.598zm-103.59 184.99h7.3984c4.0781 0 7.3984 3.3242 7.3984 7.3984v14.801c0 4.0781-3.3242 7.3984-7.3984 7.3984h-7.3984zm-14.801-44.398h-7.3984c-4.0781 0-7.3984-3.3242-7.3984-7.3984v-14.801c0-4.0781 3.3242-7.3984 7.3984-7.3984h7.3984zm59.199-29.598h-16.066c-3.0547-8.6133-11.285-14.801-20.934-14.801h-29.598c-12.238 0-22.199 9.9609-22.199 22.199v14.801c0 12.238 9.9609 22.199 22.199 22.199h37c16.324 0 29.598 13.273 29.598 29.598v29.598c0 16.324-13.273 29.598-29.598 29.598h-44.398c-16.324 0-29.598-13.273-29.598-29.598h16.066c3.0547 8.6133 11.285 14.801 20.934 14.801h29.598c12.238 0 22.199-9.9609 22.199-22.199v-14.801c0-12.238-9.9609-22.199-22.199-22.199h-37c-16.324 0-29.598-13.273-29.598-29.598v-29.598c0-16.324 13.273-29.598 29.598-29.598h44.398c16.32 0 29.598 13.273 29.598 29.598zm-59.199-44.398v-7.3984h14.801v7.3984zm118.39-81.398c-11.367 0-21.734 4.3125-29.598 11.375v-10.75c0-56.363-17.891-109.97-50.969-154.35 61.32 34.098 101.36 94.895 108.79 163.98-7.6875-6.3711-17.492-10.258-28.223-10.258zm100.67 8.9258c-7.4297-5.6016-16.672-8.9258-26.672-8.9258-11.906 0-22.695 4.7422-30.68 12.395-6.8828-75.609-50.266-142.34-117.23-179.35 89.207 15.609 159.64 86.453 174.59 175.88zm-396.66-8.9258c-9.9961 0-19.238 3.3242-26.668 8.9258 14.941-89.426 85.379-160.27 174.58-175.88-66.969 37.008-110.34 103.74-117.23 179.35-7.9844-7.6523-18.773-12.398-30.68-12.398zm74 0c-10.73 0-20.535 3.8867-28.223 10.25 7.4219-69.09 47.469-129.88 108.79-163.98-33.078 44.391-50.969 97.992-50.969 154.35v10.75c-7.8672-7.0508-18.234-11.367-29.598-11.367zm73.996 0c-11.367 0-21.734 4.3125-29.598 11.375v-10.75c0-59.133 20.934-115.01 59.199-159.31v170.06c-7.8711-7.0586-18.238-11.375-29.602-11.375zm73.996 0c-11.367 0-21.734 4.3125-29.598 11.375v-170.06c38.266 44.293 59.199 100.18 59.199 159.31v10.75c-7.8672-7.0586-18.234-11.375-29.602-11.375z"/>
  <path d="m538.79 479.6h-14.801v16.16c-8.5898 3.0625-14.801 11.203-14.801 20.836 0 12.238 9.9609 22.199 22.199 22.199 4.0781 0 7.3984 3.3242 7.3984 7.3984 0 4.0781-3.3242 7.3984-7.3984 7.3984h-22.199v14.801h14.801v14.801h14.801v-16.16c8.5898-3.0625 14.801-11.203 14.801-20.836 0-12.238-9.9609-22.199-22.199-22.199-4.0781 0-7.3984-3.3242-7.3984-7.3984 0-4.0781 3.3242-7.3984 7.3984-7.3984h22.199v-14.801h-14.801z"/>
  <path d="m531.39 457.4c-40.801 0-73.996 33.195-73.996 73.996s33.195 73.996 73.996 73.996 73.996-33.195 73.996-73.996-33.195-73.996-73.996-73.996zm0 133.2c-32.641 0-59.199-26.559-59.199-59.199s26.559-59.199 59.199-59.199 59.199 26.559 59.199 59.199-26.559 59.199-59.199 59.199z"/>
  <path d="m487 524h14.801v14.801h-14.801z"/>
  <path d="m560.99 524h14.801v14.801h-14.801z"/>
  <path d="m228.01 479.6h-14.801v16.16c-8.5898 3.0625-14.797 11.203-14.797 20.84 0 12.238 9.9609 22.199 22.199 22.199 4.0781 0 7.3984 3.3242 7.3984 7.3984 0 4.0781-3.3242 7.3984-7.3984 7.3984h-22.199v14.801h14.801v14.801h14.801v-16.16c8.5898-3.0625 14.801-11.203 14.801-20.836 0-12.238-9.9609-22.199-22.199-22.199-4.0781 0-7.3984-3.3242-7.3984-7.3984 0-4.0781 3.3242-7.3984 7.3984-7.3984h22.199v-14.801h-14.801z"/>
  <path d="m220.61 457.4c-40.805 0-74 33.195-74 73.996s33.195 73.996 73.996 73.996 73.996-33.195 73.996-73.996c0.003907-40.801-33.191-73.996-73.992-73.996zm0 133.2c-32.641 0-59.199-26.559-59.199-59.199s26.559-59.199 59.199-59.199 59.199 26.559 59.199 59.199c-0.003906 32.641-26.562 59.199-59.199 59.199z"/>
  <path d="m176.21 524h14.801v14.801h-14.801z"/>
  <path d="m250.21 524h14.801v14.801h-14.801z"/>
 </g>
</svg>
